<?xml version="1.0" encoding="iso-8859-1"?>
<!-- Generator: Adobe Illustrator 15.0.0, SVG Export Plug-In . SVG Version: 6.00 Build 0)  -->
<!DOCTYPE svg PUBLIC "-//W3C//DTD SVG 1.1//EN" "http://www.w3.org/Graphics/SVG/1.1/DTD/svg11.dtd">
<svg version="1.1" id="&#x56FE;&#x5C42;_1" xmlns="http://www.w3.org/2000/svg" xmlns:xlink="http://www.w3.org/1999/xlink" x="0px"
	 y="0px" width="150px" height="150px" viewBox="0 0 150 150" style="enable-background:new 0 0 150 150;" xml:space="preserve">
<circle style="opacity:0.48;fill:#040404;enable-background:new    ;" cx="75" cy="75" r="75"/>
<path style="fill:none;stroke:#FFFFFF;stroke-width:3;stroke-miterlimit:10;" d="M84.381,107.077
	c19.258,0,34.869-15.344,34.869-34.271"/>
<path style="fill:none;stroke:#FFFFFF;stroke-width:3;stroke-miterlimit:10;" d="M67.391,40.049
	c-1.011-0.566-2.157-0.552-3.152,0.042L39.268,61.518c-0.537,0.321-1.074,0.459-1.699,0.443l-7.612-0.385
	c-0.879-0.024-1.639,0.269-2.268,0.877c-0.631,0.606-0.948,1.35-0.948,2.221v19.956c0,0.872,0.318,1.616,0.949,2.224
	c0.632,0.606,1.391,0.899,2.271,0.873l10.51-0.49c0.591-0.018,1.097,0.105,1.614,0.39l22.242,18.754
	c0.999,0.548,2.122,0.536,3.107-0.038c0.987-0.573,1.543-1.537,1.543-2.669V42.745C68.979,41.595,68.402,40.615,67.391,40.049z"/>
<path style="fill:none;stroke:#FFFFFF;stroke-width:3;stroke-miterlimit:10;" d="M119.25,73.771
	c0-18.927-15.611-34.271-34.869-34.271"/>
<path style="fill:none;stroke:#FFFFFF;stroke-width:3;stroke-miterlimit:10;" d="M80.095,94.458
	c11.291,0,20.444-8.998,20.444-20.096"/>
<path style="fill:none;stroke:#FFFFFF;stroke-width:3;stroke-miterlimit:10;" d="M100.539,74.929
	c0-11.098-9.153-20.095-20.444-20.095"/>
<line style="fill:none;stroke:#FFFFFF;stroke-width:4;stroke-miterlimit:10;" x1="39.75" y1="60.977" x2="39.75" y2="88.439"/>
</svg>
