<?xml version="1.0" encoding="iso-8859-1"?>
<!-- Generator: Adobe Illustrator 15.0.0, SVG Export Plug-In . SVG Version: 6.00 Build 0)  -->
<!DOCTYPE svg PUBLIC "-//W3C//DTD SVG 1.1//EN" "http://www.w3.org/Graphics/SVG/1.1/DTD/svg11.dtd">
<svg version="1.1" id="&#x56FE;&#x5C42;_1" xmlns="http://www.w3.org/2000/svg" xmlns:xlink="http://www.w3.org/1999/xlink" x="0px"
	 y="0px" width="150px" height="150px" viewBox="0 0 150 150" style="enable-background:new 0 0 150 150;" xml:space="preserve">
<circle style="opacity:0.48;fill:#040404;" cx="75" cy="75" r="75"/>
<path style="fill:none;stroke:#FFFFFF;stroke-width:3;stroke-miterlimit:10;" d="M120.167,102.953c0,6.641-5.373,12.026-12,12.026
	h-66c-6.627,0-12-5.386-12-12.026V51.005c0-6.642,5.373-12.026,12-12.026h66c6.627,0,12,5.384,12,12.026V102.953z"/>
<path style="fill:none;stroke:#FFFFFF;stroke-width:3;stroke-miterlimit:10;" d="M44.125,56.75c0-4.211,3.414-7.625,7.625-7.625l0,0
	c4.211,0,7.625,3.414,7.625,7.625l0,0c0,4.211-3.414,7.625-7.625,7.625l0,0C47.539,64.375,44.125,60.961,44.125,56.75L44.125,56.75z
	"/>
<polygon style="fill:none;stroke:#FFFFFF;stroke-width:3;stroke-miterlimit:10;" points="55.75,102.875 107.125,102.875 92.5,66.5 
	81.438,90.625 73.375,80 "/>
</svg>
