<?xml version="1.0" encoding="iso-8859-1"?>
<!-- Generator: Adobe Illustrator 15.0.0, SVG Export Plug-In . SVG Version: 6.00 Build 0)  -->
<!DOCTYPE svg PUBLIC "-//W3C//DTD SVG 1.1//EN" "http://www.w3.org/Graphics/SVG/1.1/DTD/svg11.dtd">
<svg version="1.1" id="&#x56FE;&#x5C42;_1" xmlns="http://www.w3.org/2000/svg" xmlns:xlink="http://www.w3.org/1999/xlink" x="0px"
	 y="0px" width="150px" height="150px" viewBox="0 0 150 150" style="enable-background:new 0 0 150 150;" xml:space="preserve">
<circle style="opacity:0.48;fill:#040404;enable-background:new    ;" cx="75" cy="75" r="75"/>
<path style="fill-rule:evenodd;clip-rule:evenodd;fill:none;stroke:#FFFFFF;stroke-width:3;stroke-miterlimit:10;" d="
	M98.295,60.912l16.695-7.462c0.879-0.217,1.702,0.028,2.396,0.71c0.694,0.683,1.058,1.606,1.058,2.686v31.101
	c0,1.08-0.363,2.002-1.058,2.686c-0.694,0.682-1.518,0.927-2.396,0.71l-16.691-7.461"/>
<path style="fill-rule:evenodd;clip-rule:evenodd;fill:none;stroke:#FFFFFF;stroke-width:3;stroke-miterlimit:10;" d="
	M98.295,85.042v9.295c0,3.196-2.592,5.788-5.787,5.788H39.344c-3.196,0-5.788-2.592-5.788-5.788v-39.55
	c0-3.196,2.592-5.788,5.788-5.788h53.164c3.195,0,5.787,2.591,5.787,5.788v6.87"/>
<polyline style="fill-rule:evenodd;clip-rule:evenodd;fill:#FFFFFF;" points="101.109,83.484 96.781,81.531 96.797,85.75 "/>
<polyline style="fill-rule:evenodd;clip-rule:evenodd;fill:#FFFFFF;" points="96.8,59.922 96.8,63.371 99.688,61.906 "/>
</svg>
